<svg width="150" height="50" viewBox="0 0 150 50" fill="none" xmlns="http://www.w3.org/2000/svg">
<path d="M140.543 18.3538C137.173 19.2387 135.023 21.8391 135.023 25.0384C135.023 26.8355 135.735 28.4692 137.056 29.7353C138.582 31.2056 140.223 31.8182 142.577 31.8182C144.363 31.8182 145.613 31.4915 147.007 30.6202C148.257 29.8442 149.448 28.2649 149.913 26.7674L150 26.4679H147.821C146.513 26.4679 145.627 26.5223 145.627 26.604C145.627 26.8763 144.668 27.7476 144.102 27.979C142.838 28.5236 140.964 28.2241 140.078 27.3392C138.8 26.0458 138.93 23.5 140.354 22.3972C141.821 21.2673 144.276 21.5532 145.366 22.9826L145.831 23.6089H147.908H149.985L149.898 23.2277C149.855 23.0235 149.593 22.4245 149.317 21.8935C148.474 20.2326 146.659 18.8712 144.596 18.3674C143.652 18.1224 141.444 18.1224 140.543 18.3538Z" fill="black"/>
<path d="M72.6752 24.9707L72.7042 31.5055H74.8106H76.917L76.946 29.0141L76.9896 26.5363L79.4301 26.4955L81.8561 26.4682V28.9869V31.5055H84.0351H86.2141V24.9707V18.4359H84.0351H81.8561V20.7503V23.0647L79.4301 23.0375L76.9896 22.9966L76.946 20.7095L76.917 18.4359H74.767H72.6316L72.6752 24.9707Z" fill="black"/>
<path d="M92.0237 24.9707V31.5055H97.6165H103.209V29.9399V28.3742H99.7228H96.2364V27.4212V26.4682H99.7228H103.209V24.9026V23.337H99.7228H96.2364V22.384V21.431H99.7228H103.209V19.9334V18.4359H97.6165H92.0237V24.9707Z" fill="black"/>
<path d="M107.568 20.0696V21.7033H109.892H112.217V26.6044V31.5055H114.323H116.429L116.458 26.6316L116.502 21.7714L118.797 21.7305L121.078 21.6897V20.0696V18.4359H114.323H107.568V20.0696Z" fill="black"/>
<path d="M126.017 24.9707V31.5055H128.123H130.229V24.9707V18.4359H128.123H126.017V24.9707Z" fill="black"/>
<path d="M5.84028 0.165239C3.14483 0.764648 1.01984 2.74409 0.221189 5.3787C-0.0640438 6.34054 -0.0783054 8.15271 0.206928 9.22607C0.862963 11.6516 2.85959 13.631 5.44095 14.4117C6.55336 14.7462 8.39311 14.7183 9.61962 14.342C15.039 12.7249 16.7504 6.01993 12.7287 2.13074C10.9602 0.402216 8.2505 -0.36447 5.84028 0.165239ZM8.94932 4.40292C10.1758 5.01627 10.9602 6.42418 10.7891 7.6927C10.5466 9.40729 9.22029 10.5503 7.48037 10.5503C5.58357 10.5503 4.14314 9.18425 4.12888 7.37208C4.11462 4.90475 6.7245 3.28774 8.94932 4.40292Z" fill="black"/>
<path d="M37.7861 7.34457V14.0356H40.068H42.3499V7.34457V0.653498H40.068H37.7861V7.34457Z" fill="black"/>
<path d="M47.0562 7.34457V14.0356H49.338H51.6199V7.34457V0.653498H49.338H47.0562V7.34457Z" fill="black"/>
<path d="M43.4194 18.0783C42.364 18.2595 41.5226 18.608 40.453 19.305C38.385 20.6292 37.2156 22.8038 37.2156 25.3269C37.2156 28.9234 39.6543 31.8089 43.3196 32.5338C45.5301 32.9798 47.9403 32.3107 49.666 30.7634C50.6928 29.8434 51.2348 29.0767 51.7197 27.8779C52.0477 27.0555 52.1047 26.7209 52.1047 25.3269C52.1047 23.8772 52.062 23.6263 51.7054 22.7481C51.4772 22.2044 51.1064 21.5214 50.8925 21.2008C50.3648 20.448 49.0242 19.2492 48.2969 18.8868C46.7709 18.134 44.9026 17.8274 43.4194 18.0783ZM45.6014 22.1905C47.9831 22.8875 48.796 25.6894 47.1559 27.5155C45.9009 28.9094 43.6761 28.9791 42.3212 27.6409C40.4672 25.8288 41.3942 22.7341 43.9899 22.1069C44.6459 21.9535 44.8028 21.9675 45.6014 22.1905Z" fill="black"/>
<path d="M0.563354 20.8658V23.0962L7.45173 23.0683L14.3258 23.0265L14.3686 20.824L14.4114 18.6355H7.48025H0.563354V20.8658Z" fill="black"/>
<path d="M19.2477 25.3267V32.0178H21.5295H23.8114V25.3267V18.6357H21.5295H19.2477V25.3267Z" fill="black"/>
<path d="M28.3735 25.3267V32.0178H30.6554H32.9373V25.3267V18.6357H30.6554H28.3735V25.3267Z" fill="black"/>
<path d="M0.563354 29.7875V32.0178H7.48025H14.4114L14.3686 29.8153L14.3258 27.6268L7.45173 27.585L0.563354 27.5571V29.7875Z" fill="black"/>
<path d="M0.563354 43.3089V50H2.84522H5.12708V43.3089V36.6179H2.84522H0.563354V43.3089Z" fill="black"/>
<path d="M9.83447 43.3089V50H12.1163H14.3982V43.3089V36.6179H12.1163H9.83447V43.3089Z" fill="black"/>
<path d="M37.7861 38.848V41.0784L44.6745 41.0505L51.5486 41.0087V38.848V36.6874L44.6745 36.6455L37.7861 36.6177V38.848Z" fill="black"/>
<path d="M37.886 45.6369C37.8289 45.6787 37.7861 46.6823 37.7861 47.8672V50H44.703H51.6342L51.5914 47.7975L51.5486 45.609L44.7601 45.5672C41.0378 45.5532 37.9287 45.5811 37.886 45.6369Z" fill="black"/>
</svg>
