<svg width="16" height="11" viewBox="0 0 16 11" fill="none" xmlns="http://www.w3.org/2000/svg">
<path fill-rule="evenodd" clip-rule="evenodd" d="M16 5.5C16 5.70835 15.8947 5.90816 15.7071 6.05548C15.5196 6.20281 15.2653 6.28557 15.0001 6.28557L3.41541 6.28557L7.70893 9.65725C7.89668 9.80476 8.00216 10.0048 8.00216 10.2134C8.00216 10.422 7.89668 10.6221 7.70893 10.7696C7.52117 10.9171 7.26653 11 7.00101 11C6.73548 11 6.48084 10.9171 6.29308 10.7696L0.293755 6.05619C0.200639 5.98321 0.126761 5.89652 0.076354 5.80108C0.0259466 5.70564 0 5.60333 0 5.5C0 5.39667 0.0259466 5.29436 0.076354 5.19892C0.126761 5.10348 0.200639 5.01679 0.293755 4.94381L6.29308 0.230379C6.48084 0.0828695 6.73548 0 7.00101 0C7.26653 0 7.52117 0.0828695 7.70893 0.230379C7.89668 0.377889 8.00216 0.577954 8.00216 0.786565C8.00216 0.995174 7.89668 1.19524 7.70893 1.34275L3.41541 4.71443L15.0001 4.71443C15.2653 4.71443 15.5196 4.79719 15.7071 4.94452C15.8947 5.09184 16 5.29165 16 5.5Z" fill="black"/>
</svg>
